<svg width="122" height="122" viewBox="0 0 122 122" fill="none" xmlns="http://www.w3.org/2000/svg">
<g clip-path="url(#clip0_3_2)">
<path fill-rule="evenodd" clip-rule="evenodd" d="M37.88 4.52C26.3985 9.25821 16.628 17.3735 9.86314 27.7904C3.09832 38.2073 -0.341351 50.434 -9.02824e-06 62.85C0.0927954 65.8983 0.427177 68.9345 0.999991 71.93C1.26742 73.1386 1.63536 74.3227 2.09999 75.47C3.85078 79.7155 6.94499 83.2701 10.9087 85.5893C14.8724 87.9084 19.487 88.8644 24.0459 88.3107C28.6047 87.757 32.8564 85.7242 36.1497 82.5237C39.443 79.3231 41.5964 75.1312 42.28 70.59C42.4934 68.534 42.5769 66.4665 42.53 64.4C41.85 1 97.53 12.42 98 12.51C89.544 6.07113 79.5561 1.94701 69.0207 0.544161C58.4853 -0.858687 47.7662 0.508171 37.92 4.51L37.88 4.52ZM84.11 117.52C95.6015 112.786 105.381 104.668 112.149 94.244C118.916 83.8199 122.352 71.5834 122 59.16C121.937 56.1093 121.623 53.0689 121.06 50.07C120.013 45.275 117.319 40.9983 113.446 37.9827C109.574 34.9671 104.768 33.4031 99.8624 33.5624C94.9569 33.7216 90.2622 35.594 86.5936 38.8544C82.9249 42.1148 80.5142 46.5572 79.78 51.41C79.5701 53.4662 79.4899 55.5337 79.54 57.6C80.18 121.03 24.54 109.6 24.06 109.49C32.5142 115.932 42.5023 120.059 53.0385 121.462C63.5747 122.865 74.2946 121.496 84.14 117.49L84.11 117.52Z" fill="white"/>
</g>
<defs>
<clipPath id="clip0_3_2">
<rect width="122" height="122" fill="white"/>
</clipPath>
</defs>
</svg>
