<svg width="84" height="84" viewBox="0 0 84 84" fill="none" xmlns="http://www.w3.org/2000/svg">
<g clip-path="url(#clip0_4_2)">
<path fill-rule="evenodd" clip-rule="evenodd" d="M26.0815 3.11206C18.1762 6.37444 11.449 11.962 6.79121 19.1343C2.13347 26.3066 -0.234827 34.725 0.0001949 43.2737C0.0640931 45.3726 0.294323 47.463 0.688719 49.5255C0.872848 50.3576 1.12619 51.1729 1.4461 51.9629C2.65156 54.886 4.78199 57.3334 7.5111 58.9302C10.2402 60.5271 13.4175 61.1853 16.5564 60.804C19.6953 60.4228 22.6226 59.0232 24.8902 56.8195C27.1577 54.6158 28.6403 51.7296 29.111 48.6029C29.258 47.1873 29.3155 45.7638 29.2831 44.3409C28.8149 0.688459 67.152 8.55141 67.4756 8.61337C61.6535 4.18006 54.7765 1.3405 47.5226 0.374603C40.2688 -0.591292 32.8884 0.349823 26.109 3.10518L26.0815 3.11206ZM57.912 80.9153C65.8242 77.656 72.5575 72.0665 77.2173 64.8892C81.877 57.712 84.2428 49.2868 84.0002 40.733C83.9572 38.6326 83.7407 36.5392 83.353 34.4744C82.6318 31.1729 80.7771 28.2283 78.1109 26.152C75.4447 24.0757 72.1354 22.9988 68.7579 23.1085C65.3804 23.2181 62.1479 24.5073 59.622 26.7521C57.0961 28.997 55.4362 32.0557 54.9307 35.397C54.7862 36.8128 54.731 38.2362 54.7654 39.6589C55.2061 83.3321 16.8966 75.4622 16.5661 75.3865C22.387 79.8223 29.2641 82.6634 36.5185 83.6294C43.7729 84.5954 51.1538 83.6528 57.9327 80.8947L57.912 80.9153Z" fill="#E0E7EE"/>
</g>
<defs>
<clipPath id="clip0_4_2">
<rect width="84" height="84" fill="white"/>
</clipPath>
</defs>
</svg>
