<svg width="769" height="122" viewBox="0 0 769 122" fill="none" xmlns="http://www.w3.org/2000/svg">
<g clip-path="url(#clip0_5_8)">
<path fill-rule="evenodd" clip-rule="evenodd" d="M37.88 4.52C26.3985 9.25821 16.628 17.3735 9.86314 27.7904C3.09832 38.2073 -0.341351 50.434 -9.02824e-06 62.85C0.0927954 65.8983 0.427177 68.9345 0.999991 71.93C1.26742 73.1386 1.63536 74.3227 2.09999 75.47C3.85078 79.7155 6.94499 83.2701 10.9087 85.5893C14.8724 87.9085 19.487 88.8644 24.0459 88.3107C28.6047 87.757 32.8564 85.7242 36.1497 82.5237C39.443 79.3231 41.5964 75.1312 42.28 70.59C42.4934 68.534 42.5769 66.4665 42.53 64.4C41.85 1 97.53 12.42 98 12.51C89.544 6.07113 79.5561 1.94701 69.0207 0.544161C58.4853 -0.858687 47.7662 0.508171 37.92 4.51L37.88 4.52ZM84.11 117.52C95.6015 112.786 105.381 104.668 112.149 94.244C118.916 83.8199 122.352 71.5834 122 59.16C121.937 56.1093 121.623 53.0689 121.06 50.07C120.013 45.275 117.319 40.9983 113.446 37.9827C109.574 34.9671 104.768 33.4031 99.8624 33.5624C94.9569 33.7216 90.2622 35.594 86.5936 38.8544C82.9249 42.1148 80.5142 46.5572 79.78 51.41C79.5701 53.4662 79.4899 55.5337 79.54 57.6C80.18 121.03 24.54 109.6 24.06 109.49C32.5142 115.932 42.5023 120.059 53.0385 121.462C63.5747 122.865 74.2946 121.496 84.14 117.49L84.11 117.52Z" fill="white"/>
</g>
<path d="M197.5 31.7C176.6 31.7 160.4 46.9 160.4 67C160.4 87 176.6 102.5 197.5 102.5C218.4 102.5 234.6 87 234.6 67C234.6 47 218.4 31.7 197.5 31.7ZM197.6 42.3C211.3 42.3 222.5 53.1 222.5 67C222.5 80.9 211.3 91.9 197.6 91.9C183.9 91.9 172.4 80.9 172.4 67C172.4 53.1 183.8 42.3 197.6 42.3ZM257.957 48.8H246.457V102H257.957V74.2C258.857 65.1 265.657 58.8 276.357 59.4V48.4C267.957 48.4 261.557 52.2 257.957 59.4V48.8ZM336.513 27.8H325.013V58C321.113 51.8 314.713 48.3 306.113 48.3C291.113 48.3 280.813 59.2 280.813 75.2C280.813 91.4 291.013 102.5 306.313 102.5C314.813 102.5 321.213 99.1 325.013 92.9V102H336.513V27.8ZM308.713 92.9C299.013 92.9 292.413 85.7 292.313 75.6C292.413 65.4 299.113 58.1 308.713 58.1C318.313 58.1 325.013 65.3 325.013 75.6C325.013 85.7 318.313 92.9 308.713 92.9ZM375.877 48.4C360.077 48.5 348.977 59.4 348.977 75.5C348.977 91.5 359.777 102.4 376.177 102.4C385.377 102.4 392.977 99.1 398.177 93.4L392.077 86.9C388.177 90.9 382.877 93.1 377.077 93.1C368.677 93.1 362.377 88 360.577 79.8H400.777C402.177 60.6 394.577 48.4 375.877 48.4ZM360.377 71.4C361.677 62.9 367.577 57.6 375.977 57.6C384.677 57.6 390.377 62.8 390.777 71.4H360.377ZM424.266 48.8H412.766V102H424.266V74.2C425.166 65.1 431.966 58.8 442.666 59.4V48.4C434.266 48.4 427.866 52.2 424.266 59.4V48.8ZM497.045 86.2L503.745 102H516.345L485.745 32H473.645L442.745 102H455.045L461.745 86.2H497.045ZM492.545 75.7H466.145L479.345 44.6L492.545 75.7ZM556.673 48.4C547.573 48.4 540.773 51.7 536.973 59.2V27.8H525.473V102H536.973V75.8C536.973 66.4 542.673 59.3 552.173 59.2C560.173 59.2 564.973 64.1 564.973 72.1V102H576.473V68.9C576.473 56.2 569.073 48.4 556.673 48.4ZM613.767 48.4C597.967 48.5 586.867 59.4 586.867 75.5C586.867 91.5 597.667 102.4 614.067 102.4C623.267 102.4 630.867 99.1 636.067 93.4L629.967 86.9C626.067 90.9 620.767 93.1 614.967 93.1C606.567 93.1 600.267 88 598.467 79.8H638.667C640.067 60.6 632.467 48.4 613.767 48.4ZM598.267 71.4C599.567 62.9 605.467 57.6 613.867 57.6C622.567 57.6 628.267 62.8 628.667 71.4H598.267ZM682.556 102H693.856L693.756 67.1C693.656 55.4 685.956 48.4 672.256 48.4C662.156 48.4 656.756 50.7 649.356 55.1L654.056 63.1C659.356 59.5 664.656 57.7 669.756 57.7C678.156 57.7 682.456 61.7 682.456 68.4V70H666.356C653.556 70.1 646.256 76.3 646.256 86C646.256 95.4 653.456 102.5 664.956 102.5C672.656 102.5 678.756 100.2 682.556 95.5V102ZM667.356 93.4C660.956 93.4 657.056 90.3 657.056 85.5C657.056 80.4 660.556 78.4 668.056 78.4H682.456V83.3C681.856 89.1 675.556 93.4 667.356 93.4ZM759.95 27.8H748.45V58C744.55 51.8 738.15 48.3 729.55 48.3C714.55 48.3 704.25 59.2 704.25 75.2C704.25 91.4 714.45 102.5 729.75 102.5C738.25 102.5 744.65 99.1 748.45 92.9V102H759.95V27.8ZM732.15 92.9C722.45 92.9 715.85 85.7 715.75 75.6C715.85 65.4 722.55 58.1 732.15 58.1C741.75 58.1 748.45 65.3 748.45 75.6C748.45 85.7 741.75 92.9 732.15 92.9Z" fill="white"/>
<defs>
<clipPath id="clip0_5_8">
<rect width="122" height="122" fill="white"/>
</clipPath>
</defs>
</svg>
