<svg width="150" height="150" viewBox="0 0 150 150" fill="none" xmlns="http://www.w3.org/2000/svg">
<rect width="150" height="150" fill="#EAF0F6"/>
<path fill-rule="evenodd" clip-rule="evenodd" d="M59.0973 36.1059C51.192 39.3683 44.4647 44.9559 39.807 52.1281C35.1492 59.3004 32.7809 67.7188 33.0159 76.2675C33.0798 78.3664 33.3101 80.4569 33.7045 82.5193C33.8886 83.3515 34.1419 84.1668 34.4618 84.9567C35.6673 87.8799 37.7977 90.3273 40.5268 91.9241C43.256 93.5209 46.4333 94.1791 49.5721 93.7979C52.711 93.4166 55.6384 92.017 57.9059 89.8133C60.1734 87.6096 61.6561 84.7234 62.1268 81.5967C62.2737 80.1811 62.3312 78.7576 62.2989 77.3348C61.8307 33.6823 100.168 41.5452 100.491 41.6072C94.6692 37.1739 87.7923 34.3343 80.5384 33.3684C73.2845 32.4025 65.9041 33.3437 59.1248 36.099L59.0973 36.1059ZM90.9277 113.909C98.84 110.65 105.573 105.06 110.233 97.8831C114.893 90.7058 117.259 82.2807 117.016 73.7269C116.973 71.6264 116.756 69.533 116.369 67.4682C115.648 64.1667 113.793 61.2221 111.127 59.1458C108.46 57.0695 105.151 55.9926 101.774 56.1023C98.3961 56.2119 95.1637 57.5011 92.6377 59.746C90.1118 61.9908 88.4519 65.0495 87.9464 68.3908C87.8019 69.8066 87.7467 71.2301 87.7812 72.6528C88.2218 116.326 49.9123 108.456 49.5818 108.38C55.4028 112.816 62.2798 115.657 69.5343 116.623C76.7887 117.589 84.1696 116.647 90.9484 113.889L90.9277 113.909Z" fill="#E0E7EE"/>
</svg>
