<svg width="131" height="145" viewBox="0 0 131 145" fill="none" xmlns="http://www.w3.org/2000/svg">
<g clip-path="url(#clip0_603_3006)">
<g filter="url(#filter0_ddd_603_3006)">
<path d="M91.5902 35H39C36.7909 35 35 36.7909 35 39V105.847C35 108.056 36.7909 109.847 39 109.847H91.5902C93.7993 109.847 95.5902 108.056 95.5902 105.847V39C95.5902 36.7909 93.7993 35 91.5902 35Z" fill="white"/>
</g>
<path opacity="0.12" d="M47.4762 43.9097H47.4762C44.5236 43.9097 42.13 46.3033 42.13 49.2559V49.2559C42.13 52.2085 44.5236 54.6021 47.4762 54.6021H47.4762C50.4288 54.6021 52.8224 52.2085 52.8224 49.2559V49.2559C52.8224 46.3033 50.4288 43.9097 47.4762 43.9097Z" fill="#191919"/>
<path opacity="0.1" d="M70.6395 47.4744H59.9472C58.963 47.4744 58.1651 48.2722 58.1651 49.2565V49.2565C58.1651 50.2407 58.963 51.0385 59.9472 51.0385H70.6395C71.6237 51.0385 72.4216 50.2407 72.4216 49.2565V49.2565C72.4216 48.2722 71.6237 47.4744 70.6395 47.4744Z" fill="#191919"/>
<path opacity="0.1" d="M51.0403 63.5132H43.9121C42.9279 63.5132 42.13 64.311 42.13 65.2952V65.2953C42.13 66.2795 42.9279 67.0773 43.9121 67.0773H51.0403C52.0245 67.0773 52.8224 66.2795 52.8224 65.2953V65.2952C52.8224 64.311 52.0245 63.5132 51.0403 63.5132Z" fill="#191919"/>
<path opacity="0.1" d="M51.0403 72.4229H43.9121C42.9279 72.4229 42.13 73.2208 42.13 74.205V74.205C42.13 75.1892 42.9279 75.987 43.9121 75.987H51.0403C52.0245 75.987 52.8224 75.1892 52.8224 74.205V74.205C52.8224 73.2208 52.0245 72.4229 51.0403 72.4229Z" fill="#191919"/>
<path opacity="0.1" d="M86.6805 95.5901H79.5522C78.568 95.5901 77.7701 96.3879 77.7701 97.3721V97.3722C77.7701 98.3564 78.568 99.1542 79.5522 99.1542H86.6805C87.6647 99.1542 88.4625 98.3564 88.4625 97.3722V97.3721C88.4625 96.3879 87.6647 95.5901 86.6805 95.5901Z" fill="#191919"/>
<path opacity="0.1" d="M75.9857 63.5132H59.9472C58.963 63.5132 58.1651 64.311 58.1651 65.2952V65.2953C58.1651 66.2795 58.963 67.0773 59.9472 67.0773H75.9857C76.9699 67.0773 77.7678 66.2795 77.7678 65.2952C77.7678 64.311 76.9699 63.5132 75.9857 63.5132Z" fill="#191919"/>
<path opacity="0.1" d="M75.9857 72.4229H59.9472C58.963 72.4229 58.1651 73.2208 58.1651 74.205V74.205C58.1651 75.1892 58.963 75.987 59.9472 75.987H75.9857C76.9699 75.987 77.7678 75.1892 77.7678 74.205C77.7678 73.2208 76.9699 72.4229 75.9857 72.4229Z" fill="#191919"/>
<path opacity="0.1" d="M68.8609 95.5901H43.9121C42.9279 95.5901 42.13 96.3879 42.13 97.3721V97.3722C42.13 98.3564 42.9279 99.1542 43.9121 99.1542H68.8609C69.8451 99.1542 70.643 98.3564 70.643 97.3721C70.643 96.3879 69.8451 95.5901 68.8609 95.5901Z" fill="#191919"/>
<path opacity="0.05" d="M86.6816 86.6804H43.9121C42.9279 86.6804 42.13 87.4783 42.13 88.4625V88.4625C42.13 89.4467 42.9279 90.2445 43.9121 90.2445H86.6816C87.6658 90.2445 88.4637 89.4467 88.4637 88.4625C88.4637 87.4783 87.6658 86.6804 86.6816 86.6804Z" fill="#191919"/>
</g>
<defs>
<filter id="filter0_ddd_603_3006" x="0" y="10" width="130.59" height="144.847" filterUnits="userSpaceOnUse" color-interpolation-filters="sRGB">
<feFlood flood-opacity="0" result="BackgroundImageFix"/>
<feColorMatrix in="SourceAlpha" type="matrix" values="0 0 0 0 0 0 0 0 0 0 0 0 0 0 0 0 0 0 127 0" result="hardAlpha"/>
<feOffset dy="10"/>
<feGaussianBlur stdDeviation="17.5"/>
<feColorMatrix type="matrix" values="0 0 0 0 0.207843 0 0 0 0 0.207843 0 0 0 0 0.207843 0 0 0 0.08 0"/>
<feBlend mode="normal" in2="BackgroundImageFix" result="effect1_dropShadow_603_3006"/>
<feColorMatrix in="SourceAlpha" type="matrix" values="0 0 0 0 0 0 0 0 0 0 0 0 0 0 0 0 0 0 127 0" result="hardAlpha"/>
<feOffset dy="5"/>
<feGaussianBlur stdDeviation="7.5"/>
<feColorMatrix type="matrix" values="0 0 0 0 0.208333 0 0 0 0 0.208333 0 0 0 0 0.208333 0 0 0 0.04 0"/>
<feBlend mode="normal" in2="effect1_dropShadow_603_3006" result="effect2_dropShadow_603_3006"/>
<feColorMatrix in="SourceAlpha" type="matrix" values="0 0 0 0 0 0 0 0 0 0 0 0 0 0 0 0 0 0 127 0" result="hardAlpha"/>
<feOffset dy="1"/>
<feGaussianBlur stdDeviation="1.5"/>
<feColorMatrix type="matrix" values="0 0 0 0 0 0 0 0 0 0 0 0 0 0 0 0 0 0 0.06 0"/>
<feBlend mode="normal" in2="effect2_dropShadow_603_3006" result="effect3_dropShadow_603_3006"/>
<feBlend mode="normal" in="SourceGraphic" in2="effect3_dropShadow_603_3006" result="shape"/>
</filter>
<clipPath id="clip0_603_3006">
<rect width="131" height="145" fill="white"/>
</clipPath>
</defs>
</svg>
